<svg width="24" height="24" viewBox="0 0 24 24" fill="none" xmlns="http://www.w3.org/2000/svg">
<path d="M20.37 18.18C20.2671 18.1813 20.1651 18.1595 20.0717 18.1163C19.9783 18.073 19.8957 18.0094 19.83 17.93C19.707 17.788 19.6453 17.603 19.6584 17.4156C19.6715 17.2281 19.7584 17.0535 19.9 16.93C20.35 16.5293 20.71 16.0379 20.9564 15.4881C21.2029 14.9383 21.3302 14.3426 21.33 13.74V7.00005C21.3353 5.87725 20.8951 4.79818 20.1059 3.99956C19.3166 3.20094 18.2428 2.74798 17.12 2.74005H10.43C9.36935 2.72808 8.34492 3.12567 7.57002 3.85005C7.50485 3.91657 7.42705 3.96941 7.3412 4.00549C7.25534 4.04157 7.16315 4.06015 7.07002 4.06015C6.9769 4.06015 6.88471 4.04157 6.79885 4.00549C6.71299 3.96941 6.6352 3.91657 6.57002 3.85005C6.44276 3.71467 6.37191 3.53586 6.37191 3.35005C6.37191 3.16424 6.44276 2.98543 6.57002 2.85005C7.60154 1.85644 8.97779 1.30092 10.41 1.30005H17.1C18.6047 1.30799 20.0448 1.91266 21.1041 2.98134C22.1634 4.05001 22.7553 5.49534 22.75 7.00005V13.78C22.7435 14.5778 22.5702 15.3653 22.2413 16.092C21.9124 16.8188 21.4351 17.4687 20.84 18C20.7096 18.1139 20.5431 18.1777 20.37 18.18ZM19 17.38C19.008 18.7893 18.4565 20.1441 17.4666 21.1472C16.4767 22.1502 15.1292 22.7195 13.72 22.73H6.53002C5.1208 22.7195 3.77335 22.1502 2.78344 21.1472C1.79353 20.1441 1.24204 18.7893 1.25002 17.38V10.44C1.24204 9.03081 1.79353 7.67598 2.78344 6.67294C3.77335 5.66991 5.1208 5.10062 6.53002 5.09005H11.79C11.8497 5.08068 11.9104 5.08068 11.97 5.09005H12.04C12.1127 5.12742 12.18 5.17452 12.24 5.23005L18.75 11.82C18.8317 11.907 18.8907 12.0126 18.9221 12.1277C18.9535 12.2427 18.9562 12.3637 18.93 12.48C18.9346 12.5199 18.9346 12.5602 18.93 12.6L19 17.38ZM12.45 9.70005C12.45 10.2305 12.6607 10.7392 13.0358 11.1143C13.4109 11.4893 13.9196 11.7 14.45 11.7H16.57L12.45 7.55005V9.70005ZM17.56 17.38V13.12H14.41C13.961 13.1214 13.5162 13.0337 13.1012 12.8622C12.6862 12.6907 12.3093 12.4387 11.9923 12.1207C11.6752 11.8027 11.4243 11.4251 11.254 11.0096C11.0837 10.5942 10.9974 10.1491 11 9.70005V6.53005H6.53002C5.50007 6.53798 4.51529 6.95406 3.79168 7.68705C3.06807 8.42003 2.6647 9.41007 2.67002 10.44V17.38C2.6647 18.41 3.06807 19.4001 3.79168 20.1331C4.51529 20.866 5.50007 21.2821 6.53002 21.2901H13.7C14.73 21.2821 15.7148 20.866 16.4384 20.1331C17.162 19.4001 17.5653 18.41 17.56 17.38Z" fill="#5E6278"/>
<path d="M7 15H11" stroke="#5E6278" stroke-width="1.2" stroke-linecap="round"/>
<path d="M6 18H13" stroke="#5E6278" stroke-width="1.2" stroke-linecap="round"/>
</svg>
