<svg width="24" height="24" viewBox="0 0 24 24" fill="none" xmlns="http://www.w3.org/2000/svg">
<path d="M16.1 22.75H7.9C6.1592 22.7713 4.48109 22.1009 3.23423 20.8859C1.98737 19.6709 1.27372 18.0107 1.25 16.27V8.66997C1.27634 6.93094 1.99115 5.27332 3.23772 4.06049C4.48429 2.84766 6.16091 2.17859 7.9 2.19997H10.9C11.0999 2.19727 11.2928 2.27342 11.4369 2.41193C11.581 2.55044 11.6648 2.74015 11.67 2.93997C11.6648 3.13979 11.581 3.3295 11.4369 3.46801C11.2928 3.60651 11.0999 3.68267 10.9 3.67997H7.9C7.2355 3.67204 6.57594 3.79509 5.959 4.04208C5.34206 4.28907 4.77981 4.65517 4.30436 5.11948C3.82892 5.58378 3.44959 6.13719 3.18804 6.7481C2.92648 7.35901 2.78783 8.01546 2.78 8.67997V16.28C2.78783 16.9445 2.92648 17.6009 3.18804 18.2118C3.44959 18.8228 3.82892 19.3762 4.30436 19.8405C4.77981 20.3048 5.34206 20.6709 5.959 20.9179C6.57594 21.1648 7.2355 21.2879 7.9 21.28H16.1C16.7645 21.2879 17.4241 21.1648 18.041 20.9179C18.6579 20.6709 19.2202 20.3048 19.6956 19.8405C20.1711 19.3762 20.5504 18.8228 20.812 18.2118C21.0735 17.6009 21.2122 16.9445 21.22 16.28V8.66997C21.2415 8.48215 21.3314 8.3088 21.4724 8.18296C21.6135 8.05712 21.796 7.98757 21.985 7.98757C22.174 7.98757 22.3565 8.05712 22.4976 8.18296C22.6386 8.3088 22.7285 8.48215 22.75 8.66997V16.27C22.7263 18.0107 22.0126 19.6709 20.7658 20.8859C19.5189 22.1009 17.8408 22.7713 16.1 22.75ZM15.75 9.66997L16.34 9.20997C16.3772 9.18586 16.4206 9.17303 16.465 9.17303C16.5094 9.17303 16.5528 9.18586 16.59 9.20997L17.18 9.66997C17.4363 9.87003 17.7433 9.99471 18.0666 10.03C18.3898 10.0654 18.7165 10.0099 19.01 9.86997C19.3066 9.74147 19.5592 9.52919 19.7368 9.25917C19.9144 8.98916 20.0094 8.67317 20.01 8.34997V2.99997C20.0021 2.54728 19.816 2.11595 19.4922 1.79957C19.1683 1.48319 18.7328 1.30727 18.28 1.30997H14.67C14.2172 1.30727 13.7817 1.48319 13.4578 1.79957C13.134 2.11595 12.9479 2.54728 12.94 2.99997V8.39997C12.9431 8.7226 13.0391 9.03751 13.2164 9.30706C13.3938 9.57661 13.645 9.78939 13.94 9.91997C14.1782 10.0305 14.4374 10.0885 14.7 10.09C15.0867 10.0693 15.4557 9.92166 15.75 9.66997ZM15.38 8.04997L14.8 8.50997C14.7666 8.52928 14.7286 8.53944 14.69 8.53944C14.6514 8.53944 14.6134 8.52928 14.58 8.50997C14.5467 8.4932 14.5188 8.46745 14.4993 8.43565C14.4799 8.40384 14.4697 8.36724 14.47 8.32997V2.99997C14.47 2.94692 14.4911 2.89605 14.5286 2.85855C14.5661 2.82104 14.617 2.79997 14.67 2.79997H18.26C18.313 2.79997 18.3639 2.82104 18.4014 2.85855C18.4389 2.89605 18.46 2.94692 18.46 2.99997V8.39997C18.4603 8.43724 18.4501 8.47384 18.4307 8.50565C18.4112 8.53745 18.3833 8.56319 18.35 8.57997C18.3166 8.59928 18.2786 8.60944 18.24 8.60944C18.2014 8.60944 18.1634 8.59928 18.13 8.57997L17.55 8.12997C17.2389 7.89075 16.8574 7.76106 16.465 7.76106C16.0726 7.76106 15.6911 7.89075 15.38 8.12997V8.04997ZM13.86 12.47C13.8587 12.3715 13.838 12.2742 13.7991 12.1837C13.7602 12.0932 13.7039 12.0113 13.6333 11.9425C13.5627 11.8738 13.4793 11.8197 13.3878 11.7832C13.2963 11.7467 13.1985 11.7286 13.1 11.73H8C7.90067 11.7273 7.80181 11.7444 7.70915 11.7803C7.61649 11.8162 7.53189 11.8701 7.46025 11.9389C7.38861 12.0078 7.33136 12.0902 7.29183 12.1813C7.25231 12.2725 7.23129 12.3706 7.23 12.47C7.2313 12.5698 7.25226 12.6683 7.29166 12.7601C7.33106 12.8518 7.38815 12.9348 7.45965 13.0045C7.53115 13.0741 7.61568 13.129 7.70839 13.166C7.8011 13.2029 7.90019 13.2213 8 13.22H13.1C13.2998 13.22 13.4917 13.1413 13.6339 13.0009C13.7761 12.8605 13.8574 12.6698 13.86 12.47ZM16.17 16.23C16.1687 16.1315 16.148 16.0342 16.1091 15.9437C16.0702 15.8532 16.0139 15.7713 15.9433 15.7025C15.8727 15.6338 15.7893 15.5797 15.6978 15.5432C15.6063 15.5067 15.5085 15.4886 15.41 15.49H7.33C7.23151 15.4886 7.13372 15.5067 7.04222 15.5432C6.95072 15.5797 6.8673 15.6338 6.79672 15.7025C6.72615 15.7713 6.6698 15.8532 6.6309 15.9437C6.592 16.0342 6.5713 16.1315 6.57 16.23C6.57263 16.4298 6.65386 16.6205 6.7961 16.7609C6.93835 16.9013 7.13016 16.98 7.33 16.98H15.41C15.6098 16.98 15.8017 16.9013 15.9439 16.7609C16.0861 16.6205 16.1674 16.4298 16.17 16.23Z" fill="#5E6278"/>
</svg>
