<svg width="24" height="24" viewBox="0 0 24 24" fill="none" xmlns="http://www.w3.org/2000/svg">
<path d="M8.71998 11.25H3.71998C3.06033 11.2369 2.43213 10.9656 1.9703 10.4944C1.50847 10.0232 1.24985 9.38973 1.24998 8.72996V3.72996C1.26048 3.06857 1.5306 2.43783 2.00206 1.97385C2.47352 1.50988 3.1085 1.24988 3.76998 1.24996H8.76998C9.43832 1.24996 10.0793 1.51546 10.5519 1.98805C11.0245 2.46064 11.29 3.10162 11.29 3.76996V8.76996C11.2848 9.10176 11.2141 9.42927 11.082 9.73368C10.9499 10.0381 10.7589 10.3134 10.5202 10.5438C10.2814 10.7743 9.99942 10.9553 9.69049 11.0764C9.38157 11.1976 9.05175 11.2566 8.71998 11.25ZM3.71998 2.74996C3.45476 2.74996 3.20041 2.85532 3.01287 3.04285C2.82533 3.23039 2.71998 3.48474 2.71998 3.74996V8.74996C2.71998 9.01518 2.82533 9.26953 3.01287 9.45707C3.20041 9.6446 3.45476 9.74996 3.71998 9.74996H8.71998C8.98519 9.74996 9.23955 9.6446 9.42708 9.45707C9.61462 9.26953 9.71998 9.01518 9.71998 8.74996V3.74996C9.71998 3.48474 9.61462 3.23039 9.42708 3.04285C9.23955 2.85532 8.98519 2.74996 8.71998 2.74996H3.71998ZM20.18 11.25H15.18C14.5116 11.25 13.8707 10.9845 13.3981 10.5119C12.9255 10.0393 12.66 9.39831 12.66 8.72996V3.72996C12.66 3.06162 12.9255 2.42064 13.3981 1.94805C13.8707 1.47546 14.5116 1.20996 15.18 1.20996H20.18C20.8483 1.20996 21.4893 1.47546 21.9619 1.94805C22.4345 2.42064 22.7 3.06162 22.7 3.72996V8.72996C22.7001 9.38973 22.4415 10.0232 21.9796 10.4944C21.5178 10.9656 20.8896 11.2369 20.23 11.25H20.18ZM15.18 2.74996C14.9148 2.74996 14.6604 2.85532 14.4729 3.04285C14.2853 3.23039 14.18 3.48474 14.18 3.74996V8.74996C14.18 9.01518 14.2853 9.26953 14.4729 9.45707C14.6604 9.6446 14.9148 9.74996 15.18 9.74996H20.18C20.4452 9.74996 20.6995 9.6446 20.8871 9.45707C21.0746 9.26953 21.18 9.01518 21.18 8.74996V3.74996C21.18 3.48474 21.0746 3.23039 20.8871 3.04285C20.6995 2.85532 20.4452 2.74996 20.18 2.74996H15.18ZM20.12 22.75H15.27C14.6016 22.75 13.9607 22.4845 13.4881 22.0119C13.0155 21.5393 12.75 20.8983 12.75 20.23V15.23C12.75 14.5616 13.0155 13.9206 13.4881 13.4481C13.9607 12.9755 14.6016 12.71 15.27 12.71H20.22C20.8883 12.71 21.5293 12.9755 22.0019 13.4481C22.4745 13.9206 22.74 14.5616 22.74 15.23V20.23C22.74 20.8983 22.4745 21.5393 22.0019 22.0119C21.5293 22.4845 20.8883 22.75 20.22 22.75H20.12ZM15.17 14.25C14.9048 14.25 14.6504 14.3553 14.4629 14.5429C14.2753 14.7304 14.17 14.9847 14.17 15.25V20.25C14.17 20.5152 14.2753 20.7695 14.4629 20.9571C14.6504 21.1446 14.9048 21.25 15.17 21.25H20.12C20.3852 21.25 20.6395 21.1446 20.8271 20.9571C21.0146 20.7695 21.12 20.5152 21.12 20.25V15.25C21.12 14.9847 21.0146 14.7304 20.8271 14.5429C20.6395 14.3553 20.3852 14.25 20.12 14.25H15.17ZM8.61998 22.75H3.61998C2.95163 22.75 2.31066 22.4845 1.83807 22.0119C1.36547 21.5393 1.09998 20.8983 1.09998 20.23V15.23C1.09998 14.5616 1.36547 13.9206 1.83807 13.4481C2.31066 12.9755 2.95163 12.71 3.61998 12.71H8.61998C9.28832 12.71 9.92929 12.9755 10.4019 13.4481C10.8745 13.9206 11.14 14.5616 11.14 15.23V20.23C11.1405 20.8813 10.8888 21.5076 10.4376 21.9774C9.98641 22.4472 9.37084 22.7241 8.71998 22.75H8.61998ZM3.61998 14.25C3.35476 14.25 3.10041 14.3553 2.91287 14.5429C2.72533 14.7304 2.61998 14.9847 2.61998 15.25V20.25C2.61998 20.5152 2.72533 20.7695 2.91287 20.9571C3.10041 21.1446 3.35476 21.25 3.61998 21.25H8.61998C8.88519 21.25 9.13955 21.1446 9.32708 20.9571C9.51462 20.7695 9.61998 20.5152 9.61998 20.25V15.25C9.61998 14.9847 9.51462 14.7304 9.32708 14.5429C9.13955 14.3553 8.88519 14.25 8.61998 14.25H3.61998Z" fill="#5E6278"/>
</svg>
