<svg width="24" height="24" viewBox="0 0 24 24" fill="none" xmlns="http://www.w3.org/2000/svg">
<path d="M22.75 7.00004C22.7664 6.232 22.4816 5.48804 21.9564 4.92736C21.4312 4.36668 20.7075 4.03383 19.94 4.00004H18L16.6 1.69004C16.4969 1.52821 16.3351 1.41272 16.1485 1.36795C15.9619 1.32317 15.7653 1.35261 15.6 1.45004C15.4314 1.56938 15.3141 1.74792 15.2715 1.94999C15.2288 2.15206 15.264 2.36278 15.37 2.54004L16.26 4.00004H7.72999L8.61999 2.56004C8.68531 2.46979 8.73155 2.36718 8.7559 2.25847C8.78025 2.14975 8.78218 2.03722 8.7616 1.92773C8.74101 1.81824 8.69833 1.7141 8.63616 1.62165C8.57398 1.52921 8.49363 1.4504 8.39999 1.39004C8.23657 1.28911 8.03995 1.25665 7.85276 1.29971C7.66557 1.34276 7.50289 1.45785 7.39999 1.62004L5.93999 3.92004H4.05999C3.6729 3.93672 3.29292 4.02974 2.9419 4.19376C2.59088 4.35779 2.27575 4.58957 2.01461 4.8758C1.75348 5.16203 1.55149 5.49705 1.42027 5.8616C1.28905 6.22615 1.23118 6.61305 1.24999 7.00004C1.22334 7.66948 1.42155 8.32857 1.81301 8.87226C2.20447 9.41596 2.76667 9.81298 3.40999 10L4.82999 19.24C4.96492 20.2129 5.4413 21.106 6.17404 21.76C6.90678 22.414 7.84815 22.7861 8.82999 22.81H15.3C16.2915 22.7861 17.2412 22.4061 17.9757 21.7396C18.7101 21.0731 19.1802 20.1646 19.3 19.18L20.62 10C21.2577 9.80746 21.8132 9.40809 22.1989 8.8649C22.5845 8.32171 22.7784 7.66561 22.75 7.00004V7.00004ZM17.75 18.9C17.6769 19.5181 17.3862 20.0899 16.93 20.5132C16.4738 20.9364 15.8818 21.1835 15.26 21.21H8.78999C8.17037 21.1818 7.58065 20.9356 7.12502 20.5147C6.66939 20.0938 6.37717 19.5255 6.29999 18.91L4.93999 10H19.06L17.75 18.9ZM19.94 8.46004H4.05999C3.69483 8.43434 3.35397 8.26764 3.1095 7.99517C2.86503 7.72271 2.7361 7.36584 2.74999 7.00004C2.73638 6.81478 2.75951 6.62866 2.81806 6.45236C2.87661 6.27607 2.96941 6.11308 3.09114 5.97277C3.21287 5.83245 3.36113 5.71757 3.5274 5.63473C3.69366 5.55189 3.87466 5.50272 4.05999 5.49004H19.94C20.1253 5.50272 20.3063 5.55189 20.4726 5.63473C20.6388 5.71757 20.7871 5.83245 20.9088 5.97277C21.0306 6.11308 21.1234 6.27607 21.1819 6.45236C21.2405 6.62866 21.2636 6.81478 21.25 7.00004C21.2639 7.36584 21.1349 7.72271 20.8905 7.99517C20.646 8.26764 20.3051 8.43434 19.94 8.46004V8.46004ZM8.93999 17.1V13.31C8.93999 13.1111 9.01901 12.9204 9.15966 12.7797C9.30031 12.6391 9.49107 12.56 9.68999 12.56C9.8889 12.56 10.0797 12.6391 10.2203 12.7797C10.361 12.9204 10.44 13.1111 10.44 13.31V17.1C10.44 17.299 10.361 17.4897 10.2203 17.6304C10.0797 17.771 9.8889 17.85 9.68999 17.85C9.49107 17.85 9.30031 17.771 9.15966 17.6304C9.01901 17.4897 8.93999 17.299 8.93999 17.1ZM13.59 17.1V13.31C13.59 13.1111 13.669 12.9204 13.8097 12.7797C13.9503 12.6391 14.1411 12.56 14.34 12.56C14.5389 12.56 14.7297 12.6391 14.8703 12.7797C15.011 12.9204 15.09 13.1111 15.09 13.31V17.1C15.09 17.299 15.011 17.4897 14.8703 17.6304C14.7297 17.771 14.5389 17.85 14.34 17.85C14.1411 17.85 13.9503 17.771 13.8097 17.6304C13.669 17.4897 13.59 17.299 13.59 17.1V17.1Z" fill="#7E8299"/>
</svg>
