<svg width="21" height="22" viewBox="0 0 21 22" fill="none" xmlns="http://www.w3.org/2000/svg">
<path d="M20.198 4.11771L17.3923 1.30718C16.875 0.808114 16.1847 0.529297 15.4664 0.529297C14.7482 0.529297 14.0579 0.808114 13.5406 1.30718L11.4681 3.41263L2.27863 12.5787C2.20821 12.6546 2.15488 12.7448 2.12221 12.8431V12.8431L0.108356 18.9146C0.0444102 19.0907 0.00813338 19.2757 0.000820465 19.463C0.000820465 19.463 0.000820465 19.463 0.000820465 19.5218C-0.00935158 19.8645 0.0752278 20.2034 0.24522 20.5011C0.24522 20.5011 0.303876 20.5696 0.323428 20.6088C0.393812 20.73 0.479214 20.8419 0.577604 20.9417V20.9417C0.759837 21.128 0.977363 21.2759 1.21742 21.3768C1.45748 21.4777 1.71524 21.5295 1.97557 21.5293C2.19178 21.5278 2.40634 21.4914 2.61101 21.4216L8.67212 19.4043C8.77074 19.3678 8.86066 19.3111 8.93607 19.2378L18.0962 10.0521L20.198 7.9369C20.4572 7.68196 20.662 7.37686 20.7998 7.04016C20.9376 6.70346 21.0056 6.3422 20.9996 5.97835C20.9824 5.27769 20.6951 4.6109 20.198 4.11771V4.11771ZM8.42772 17.6905L6.13036 15.399L3.83301 13.0977L11.9471 4.97948L16.5418 9.5723L8.42772 17.6905ZM2.13199 20.0604H1.94624C1.85525 20.0539 1.76757 20.0235 1.69207 19.9722V19.9722C1.59968 19.8811 1.544 19.7591 1.53565 19.6295C1.52696 19.5678 1.52696 19.5051 1.53565 19.4434L1.69207 18.6796L2.85541 19.8449L2.13199 20.0604ZM4.40979 19.3063L2.22975 17.1225L3.11936 14.4589L5.07456 16.4175L7.02976 18.376L4.40979 19.3063ZM19.1618 6.93804L17.578 8.53426L12.9833 3.93165L14.5768 2.34522C14.8131 2.10961 15.133 1.97733 15.4664 1.97733C15.7999 1.97733 16.1197 2.10961 16.356 2.34522L19.1618 5.15575C19.397 5.39249 19.529 5.71289 19.529 6.04689C19.529 6.3809 19.397 6.7013 19.1618 6.93804V6.93804Z" fill="#7E8299"/>
</svg>
