<svg width="24" height="24" viewBox="0 0 24 24" fill="none" xmlns="http://www.w3.org/2000/svg">
<path d="M22.3008 10.49C22.3063 10.4435 22.3063 10.3965 22.3008 10.35C22.3329 10.2254 22.3327 10.0943 22.3002 9.96975C22.2677 9.84522 22.2041 9.73155 22.1157 9.64001L14.3235 1.64001C14.2619 1.58115 14.1932 1.53073 14.119 1.49001H14.0411C13.9798 1.47957 13.9173 1.47957 13.856 1.49001H7.53456C5.90153 1.49251 4.33509 2.15485 3.17399 3.33381C2.0129 4.51276 1.35049 6.11356 1.33002 7.79001V16.21C1.33259 17.8986 1.98711 19.5173 3.15013 20.7114C4.31315 21.9054 5.88981 22.5774 7.53456 22.58H16.1255C17.7702 22.5774 19.3469 21.9054 20.5099 20.7114C21.6729 19.5173 22.3274 17.8986 22.33 16.21L22.3008 10.49ZM14.5086 4.00001L19.8073 9.42001H16.9729C16.3201 9.41738 15.6948 9.14998 15.2332 8.67608C14.7716 8.20218 14.5112 7.5602 14.5086 6.89001V4.00001ZM16.1255 21.1H7.53456C6.2773 21.0974 5.07226 20.5834 4.18324 19.6707C3.29422 18.758 2.79363 17.5208 2.79106 16.23V7.79001C2.79363 6.49922 3.29422 5.26205 4.18324 4.34932C5.07226 3.43659 6.2773 2.92265 7.53456 2.92001H13.0476V6.92001C13.0476 7.98088 13.458 8.99829 14.1887 9.74844C14.9194 10.4986 15.9103 10.92 16.9437 10.92H20.8398V16.21C20.8398 17.4964 20.344 18.7306 19.4608 19.6431C18.5775 20.5555 17.3785 21.0721 16.1255 21.08V21.1Z" fill="#5E6278"/>
</svg>
