<svg width="24" height="24" viewBox="0 0 24 24" fill="none" xmlns="http://www.w3.org/2000/svg">
<path d="M16.11 1.25H7.89001C6.11645 1.2711 4.42315 1.99252 3.17931 3.25696C1.93547 4.52141 1.24196 6.22633 1.25001 8V16C1.24975 16.8563 1.41266 17.7047 1.73001 18.5C1.84104 18.7869 1.9748 19.0644 2.13001 19.33L2.23001 19.51C2.36001 19.72 2.49001 19.91 2.63001 20.1L2.80001 20.32C2.95001 20.5 3.11001 20.67 3.27001 20.83L3.56001 21.1L3.94001 21.4C4.08001 21.51 4.23001 21.61 4.38001 21.71C4.53001 21.81 4.69001 21.9 4.84001 21.98L5.16001 22.14C5.37001 22.23 5.58001 22.32 5.80001 22.39L6.01001 22.46C6.25291 22.532 6.50006 22.5887 6.75001 22.63H6.99001C7.28478 22.6732 7.58211 22.6966 7.88001 22.7H16.1C17.8666 22.6816 19.555 21.9682 20.7996 20.7143C22.0441 19.4604 22.7448 17.7667 22.75 16V8C22.7581 6.22633 22.0646 4.52141 20.8207 3.25696C19.5769 1.99252 17.8836 1.2711 16.11 1.25ZM21.25 16C21.2566 16.6816 21.1289 17.3578 20.8741 17.99C20.6194 18.6222 20.2426 19.198 19.7653 19.6846C19.288 20.1712 18.7195 20.559 18.0924 20.8259C17.4652 21.0927 16.7916 21.2335 16.11 21.24H7.89001C7.59143 21.2336 7.29382 21.2035 7.00001 21.15H6.79001C6.18706 21.0112 5.6144 20.7638 5.10001 20.42L5.00001 20.3C4.76092 20.1293 4.53678 19.9387 4.33001 19.73C4.08657 19.5059 3.86244 19.2617 3.66001 19L3.56001 18.83C3.49001 18.72 3.43001 18.59 3.37001 18.47L6.37001 16.04C6.81205 15.6773 7.3703 15.4867 7.94184 15.5032C8.51339 15.5198 9.05968 15.7424 9.48001 16.13C9.77253 16.3979 10.1153 16.6051 10.4884 16.7397C10.8615 16.8742 11.2577 16.9335 11.6538 16.9139C12.05 16.8944 12.4384 16.7965 12.7965 16.6259C13.1545 16.4553 13.4753 16.2154 13.74 15.92L15.74 13.74C15.958 13.4975 16.2232 13.3021 16.5195 13.1659C16.8158 13.0298 17.1367 12.9556 17.4627 12.9482C17.7887 12.9407 18.1128 12.9999 18.415 13.1224C18.7172 13.2448 18.9911 13.4278 19.22 13.66L21.28 15.75L21.25 16ZM21.25 13.57L20.25 12.57C19.8788 12.193 19.4346 11.8957 18.9446 11.6962C18.4545 11.4968 17.929 11.3994 17.4 11.41C16.8711 11.4207 16.3501 11.5408 15.8699 11.7628C15.3897 11.9849 14.9607 12.3039 14.61 12.7L12.61 14.87C12.477 15.0198 12.3154 15.1417 12.1348 15.2285C11.9542 15.3152 11.7582 15.3652 11.5581 15.3754C11.3579 15.3857 11.1578 15.356 10.9693 15.2881C10.7808 15.2202 10.6076 15.1155 10.46 14.98C9.78007 14.3655 8.90366 14.013 7.98759 13.9855C7.07152 13.958 6.17556 14.2574 5.46001 14.83L2.84001 16.92C2.77985 16.617 2.7497 16.3089 2.75001 16V8C2.74201 6.62696 3.27843 5.3067 4.24181 4.32832C5.20518 3.34995 6.51701 2.7932 7.89001 2.78H16.11C17.483 2.7932 18.7948 3.34995 19.7582 4.32832C20.7216 5.3067 21.258 6.62696 21.25 8V13.57ZM7.79001 5.32C7.2342 5.31007 6.68801 5.46581 6.22103 5.76739C5.75404 6.06896 5.38738 6.50271 5.16777 7.01339C4.94816 7.52407 4.88553 8.08856 4.98785 8.63496C5.09018 9.18136 5.35283 9.68493 5.74235 10.0815C6.13188 10.4781 6.63064 10.7498 7.1751 10.862C7.71957 10.9741 8.2851 10.9217 8.79965 10.7113C9.3142 10.5009 9.75449 10.1421 10.0644 9.68067C10.3744 9.21919 10.5399 8.6759 10.54 8.12C10.544 7.7554 10.4759 7.3936 10.3397 7.05537C10.2035 6.71713 10.0019 6.40911 9.74642 6.14897C9.49093 5.88883 9.18659 5.68169 8.85086 5.53944C8.51513 5.39718 8.15462 5.32261 7.79001 5.32ZM7.79001 9.4C7.53433 9.414 7.28033 9.351 7.06083 9.21913C6.84134 9.08727 6.66644 8.8926 6.55874 8.66029C6.45104 8.42798 6.41549 8.1687 6.45669 7.91598C6.49788 7.66325 6.61393 7.42869 6.78984 7.24261C6.96574 7.05653 7.19341 6.92749 7.44342 6.87216C7.69343 6.81682 7.95429 6.83775 8.19229 6.93223C8.43028 7.02671 8.63447 7.1904 8.77846 7.40214C8.92245 7.61388 8.99962 7.86394 9.00001 8.12C9.00296 8.44841 8.87858 8.76519 8.65297 9.00385C8.42736 9.24251 8.11806 9.3845 7.79001 9.4Z" fill="#5E6278"/>
</svg>
