<svg width="24" height="24" viewBox="0 0 24 24" fill="none" xmlns="http://www.w3.org/2000/svg">
<path d="M12.2599 23.2472C11.1626 23.248 10.099 22.8926 9.2508 22.2417L3.9991 18.2306C3.45365 17.8158 3.01437 17.2922 2.71345 16.6981C2.41253 16.104 2.25759 15.4545 2.25998 14.7972V6.93541C2.26046 6.08606 2.52159 5.25466 3.01238 4.53989C3.50317 3.82512 4.20301 3.25699 5.02885 2.90293L10.2806 0.656713C10.9005 0.386963 11.5761 0.247192 12.2599 0.247192C12.9438 0.247192 13.6194 0.386963 14.2393 0.656713L19.4911 2.90293C20.3169 3.25699 21.0167 3.82512 21.5075 4.53989C21.9983 5.25466 22.2594 6.08606 22.2599 6.93541V14.7972C22.2623 15.4545 22.1074 16.104 21.8064 16.6981C21.5055 17.2922 21.0662 17.8158 20.5208 18.2306L15.2691 22.2417C14.4209 22.8926 13.3573 23.248 12.2599 23.2472ZM12.2599 1.85469C11.8247 1.85768 11.3953 1.94891 11.0014 2.1221L5.74967 4.35762C5.22172 4.58425 4.77418 4.94741 4.45992 5.40419C4.14566 5.86098 3.97782 6.39231 3.97622 6.93541V14.7972C3.98629 15.2106 4.0941 15.6168 4.29192 15.9866C4.48973 16.3565 4.77265 16.6808 5.12038 16.9364L10.3721 20.9475C10.9151 21.361 11.5939 21.5868 12.2943 21.5868C12.9946 21.5868 13.6735 21.361 14.2165 20.9475L19.4682 16.9364C19.8159 16.6808 20.0988 16.3565 20.2966 15.9866C20.4944 15.6168 20.6023 15.2106 20.6123 14.7972V6.93541C20.6107 6.39231 20.4429 5.86098 20.1286 5.40419C19.8144 4.94741 19.3668 4.58425 18.8389 4.35762L13.5185 2.1221C13.1246 1.94891 12.6952 1.85768 12.2599 1.85469ZM11.3446 14.4977L16.1272 10.1443C16.2879 9.99387 16.3782 9.78997 16.3782 9.57738C16.3782 9.3648 16.2879 9.1609 16.1272 9.01048C15.9663 8.86025 15.7482 8.77587 15.5208 8.77587C15.2934 8.77587 15.0753 8.86025 14.9144 9.01048L10.7611 12.8183L9.61693 11.7487C9.55038 11.6479 9.46077 11.5621 9.35455 11.4976C9.24832 11.433 9.12812 11.3912 9.00257 11.3752C8.87701 11.3592 8.74923 11.3694 8.62839 11.4051C8.50756 11.4407 8.39667 11.501 8.30369 11.5814C8.21072 11.6619 8.13796 11.7606 8.09065 11.8705C8.04333 11.9804 8.02264 12.0988 8.03006 12.217C8.03747 12.3353 8.07281 12.4505 8.13353 12.5545C8.19425 12.6585 8.27884 12.7486 8.38124 12.8183L10.1318 14.4977C10.2122 14.5749 10.3082 14.6364 10.4143 14.6787C10.5204 14.7209 10.6344 14.743 10.7497 14.7437C10.8613 14.7414 10.9713 14.7184 11.0734 14.6762C11.1755 14.634 11.2677 14.5733 11.3446 14.4977Z" fill="#5E6278"/>
</svg>
