<svg width="24" height="24" viewBox="0 0 24 24" fill="none" xmlns="http://www.w3.org/2000/svg">
<path d="M11.49 13.24C12.6178 13.24 13.7202 12.9054 14.6578 12.2786C15.5954 11.6519 16.326 10.7611 16.7571 9.71895C17.1882 8.67683 17.3005 7.53023 17.0797 6.42427C16.859 5.31831 16.3151 4.30268 15.517 3.50592C14.7188 2.70916 13.7022 2.16708 12.5959 1.94828C11.4895 1.72947 10.3431 1.84378 9.30178 2.27673C8.26042 2.70968 7.37089 3.44182 6.74577 4.3805C6.12065 5.31917 5.78803 6.42219 5.79001 7.54997C5.79001 8.29803 5.93752 9.03875 6.22409 9.72975C6.51067 10.4207 6.93068 11.0484 7.46011 11.5769C7.98953 12.1054 8.61798 12.5244 9.30947 12.8097C10.001 13.0951 10.7419 13.2413 11.49 13.24ZM11.49 3.34997C12.3207 3.34997 13.1327 3.59629 13.8234 4.0578C14.5141 4.5193 15.0524 5.17525 15.3703 5.9427C15.6882 6.71015 15.7714 7.55463 15.6093 8.36935C15.4473 9.18407 15.0472 9.93244 14.4599 10.5198C13.8725 11.1072 13.1241 11.5072 12.3094 11.6693C11.4947 11.8313 10.6502 11.7482 9.88274 11.4303C9.11529 11.1124 8.45934 10.574 7.99784 9.88336C7.53634 9.19268 7.29001 8.38065 7.29001 7.54997C7.29001 6.43606 7.73251 5.36777 8.52016 4.58012C9.30782 3.79247 10.3761 3.34997 11.49 3.34997ZM17.43 12.73C16.7856 12.7287 16.1479 12.8613 15.5574 13.1195C14.9669 13.3778 14.4366 13.7559 14 14.23C13.1741 14.0348 12.3287 13.9342 11.48 13.93C6.70001 13.93 2.57001 17.04 1.87001 21.18C1.85283 21.2766 1.85504 21.3756 1.87649 21.4714C1.89795 21.5671 1.93823 21.6576 1.995 21.7376C2.05176 21.8177 2.12388 21.8856 2.20714 21.9375C2.29041 21.9894 2.38316 22.0242 2.48001 22.04H2.61001C2.78608 22.0383 2.95613 21.9756 3.0911 21.8626C3.22607 21.7495 3.31758 21.593 3.35001 21.42C3.92001 18 7.42001 15.42 11.48 15.42C12.0232 15.4253 12.5651 15.4754 13.1 15.57C12.8425 16.1562 12.7097 16.7896 12.71 17.43C12.71 18.3615 12.9862 19.2721 13.5038 20.0467C14.0213 20.8213 14.7569 21.425 15.6176 21.7814C16.4782 22.1379 17.4252 22.2312 18.3389 22.0495C19.2525 21.8677 20.0918 21.4191 20.7505 20.7604C21.4092 20.1017 21.8578 19.2625 22.0395 18.3488C22.2212 17.4352 22.128 16.4882 21.7715 15.6275C21.415 14.7669 20.8113 14.0313 20.0367 13.5137C19.2622 12.9962 18.3516 12.72 17.42 12.72L17.43 12.73ZM17.43 20.65C16.7947 20.6519 16.1731 20.4654 15.6439 20.1139C15.1147 19.7623 14.7017 19.2617 14.4572 18.6753C14.2127 18.089 14.1477 17.4432 14.2705 16.8199C14.3932 16.1965 14.6981 15.6236 15.1467 15.1737C15.5952 14.7238 16.1671 14.4171 16.7901 14.2924C17.413 14.1677 18.059 14.2307 18.6461 14.4734C19.2332 14.716 19.7352 15.1275 20.0883 15.6556C20.4415 16.1836 20.63 16.8047 20.63 17.44C20.63 18.2896 20.2932 19.1045 19.6934 19.7063C19.0935 20.308 18.2796 20.6473 17.43 20.65ZM19.43 15.89C19.5746 16.0093 19.6677 16.1798 19.6901 16.366C19.7124 16.5521 19.6623 16.7398 19.55 16.89L17.87 19.04C17.7992 19.1289 17.7095 19.201 17.6075 19.2511C17.5055 19.3012 17.3937 19.3282 17.28 19.33C17.1675 19.3296 17.0567 19.3032 16.956 19.2529C16.8554 19.2026 16.7678 19.1297 16.7 19.04L15.48 17.49C15.3712 17.3377 15.3242 17.1499 15.3483 16.9644C15.3724 16.7789 15.4659 16.6093 15.61 16.49C15.7602 16.3777 15.9478 16.3276 16.134 16.3499C16.3202 16.3722 16.4906 16.4654 16.61 16.61L17.24 17.42L18.38 16C18.5034 15.8476 18.6823 15.7504 18.8773 15.7298C19.0723 15.7092 19.2675 15.7668 19.42 15.89H19.43Z" fill="#5E6278"/>
</svg>
