<svg width="24" height="24" viewBox="0 0 24 24" fill="none" xmlns="http://www.w3.org/2000/svg">
<path d="M12.0655 15.49C11.2601 15.49 10.4728 15.27 9.80314 14.858C9.13349 14.4459 8.61156 13.8602 8.30336 13.175C7.99515 12.4898 7.91451 11.7358 8.07164 11.0084C8.22876 10.2809 8.61658 9.61275 9.18607 9.0883C9.75556 8.56385 10.4811 8.2067 11.271 8.06201C12.0609 7.91731 12.8797 7.99157 13.6238 8.2754C14.3678 8.55923 15.0038 9.03988 15.4513 9.65656C15.8987 10.2732 16.1375 10.9983 16.1375 11.74C16.1375 12.2324 16.0322 12.72 15.8276 13.175C15.6229 13.63 15.323 14.0434 14.9448 14.3916C14.5667 14.7398 14.1178 15.016 13.6238 15.2045C13.1297 15.393 12.6002 15.49 12.0655 15.49ZM12.0655 9.35995C11.5543 9.35995 11.0546 9.49954 10.6296 9.76105C10.2046 10.0226 9.87339 10.3943 9.67778 10.8292C9.48217 11.2641 9.43099 11.7426 9.53071 12.2043C9.63043 12.6659 9.87657 13.09 10.238 13.4229C10.5994 13.7557 11.0599 13.9824 11.5613 14.0742C12.0626 14.1661 12.5822 14.1189 13.0545 13.9388C13.5267 13.7586 13.9303 13.4536 14.2143 13.0622C14.4983 12.6708 14.6499 12.2107 14.6499 11.74C14.6499 11.1087 14.3776 10.5034 13.8929 10.057C13.4082 9.6107 12.7509 9.35995 12.0655 9.35995ZM12.0655 22.79C9.2313 22.79 7.00524 21.38 7.00524 19.58C7.00524 17.78 9.2313 16.37 12.0655 16.37C14.8996 16.37 17.1257 17.78 17.1257 19.58C17.1257 21.38 14.8996 22.79 12.0655 22.79ZM12.0655 17.79C9.99142 17.79 8.54719 18.73 8.54719 19.58C8.54719 20.43 9.99142 21.37 12.0655 21.37C14.1395 21.37 15.5837 20.42 15.5837 19.58C15.5837 18.74 14.1395 17.79 12.0655 17.79ZM17.4949 7.98995C16.7682 7.98403 16.0598 7.78019 15.4587 7.40411C14.8576 7.02803 14.3909 6.49654 14.1173 5.8766C13.8436 5.25666 13.7754 4.576 13.9211 3.9204C14.0667 3.26479 14.4199 2.66356 14.936 2.19246C15.4521 1.72135 16.108 1.40145 16.8212 1.27306C17.5344 1.14467 18.2728 1.21353 18.9436 1.47097C19.6143 1.72841 20.1873 2.16291 20.5904 2.71972C20.9935 3.27654 21.2086 3.93076 21.2086 4.59995C21.21 5.04597 21.1159 5.48787 20.9315 5.90032C20.7472 6.31277 20.4762 6.68766 20.1343 7.00351C19.7923 7.31936 19.386 7.56996 18.9387 7.74095C18.4913 7.91194 18.0118 7.99995 17.5274 7.99995L17.4949 7.98995ZM17.4949 2.62995C17.0653 2.62995 16.6454 2.74725 16.2883 2.96701C15.9312 3.18678 15.6528 3.49913 15.4884 3.86458C15.324 4.23004 15.281 4.63217 15.3648 5.02013C15.4486 5.40809 15.6555 5.76446 15.9592 6.04417C16.2629 6.32387 16.6499 6.51435 17.0712 6.59152C17.4925 6.66869 17.9291 6.62909 18.326 6.47771C18.7228 6.32634 19.062 6.06999 19.3006 5.74109C19.5393 5.41219 19.6666 5.02551 19.6666 4.62995C19.6667 4.10468 19.4424 3.60046 19.0421 3.22624C18.6418 2.85202 18.0978 2.63783 17.5274 2.62995H17.4949ZM6.57088 7.99995C5.84329 7.99995 5.13201 7.80138 4.52688 7.42932C3.92176 7.05726 3.44993 6.52841 3.171 5.90955C2.89207 5.29069 2.81854 4.60959 2.9597 3.95227C3.10086 3.29494 3.45038 2.69089 3.96411 2.21639C4.47784 1.7419 5.13274 1.41824 5.8461 1.28631C6.55945 1.15438 7.29926 1.22009 7.97209 1.47514C8.64492 1.73019 9.22058 2.16314 9.62637 2.7193C10.0322 3.27547 10.2499 3.9299 10.252 4.59995C10.2535 5.04597 10.1593 5.48787 9.97494 5.90032C9.79059 6.31277 9.51966 6.68766 9.17769 7.00351C8.83573 7.31936 8.42944 7.56996 7.98211 7.74095C7.53478 7.91194 7.05521 7.99995 6.57088 7.99995ZM6.57088 2.63995C6.14135 2.63995 5.72146 2.75725 5.36432 2.97701C5.00717 3.19678 4.72881 3.50913 4.56443 3.87458C4.40006 4.24004 4.35705 4.64217 4.44085 5.03013C4.52465 5.41809 4.73149 5.77446 5.03521 6.05417C5.33894 6.33387 5.72591 6.52435 6.14719 6.60152C6.56847 6.67869 7.00515 6.63909 7.40198 6.48771C7.79882 6.33634 8.13801 6.07999 8.37664 5.75109C8.61528 5.42219 8.74265 5.03551 8.74265 4.63995C8.74408 4.37647 8.68896 4.11532 8.58046 3.87151C8.47196 3.62771 8.31222 3.40605 8.11041 3.21927C7.9086 3.03249 7.6687 2.88428 7.4045 2.78314C7.1403 2.68201 6.857 2.62995 6.57088 2.62995V2.63995ZM22.8591 11.94C22.8591 10.09 20.4376 8.63995 17.3537 8.63995C17.244 8.62799 17.1329 8.63755 17.0275 8.66802C16.9221 8.69849 16.825 8.74917 16.7424 8.81672C16.6599 8.88427 16.5938 8.96716 16.5485 9.05993C16.5033 9.1527 16.4799 9.25325 16.4799 9.35495C16.4799 9.45665 16.5033 9.5572 16.5485 9.64997C16.5938 9.74274 16.6599 9.82563 16.7424 9.89318C16.825 9.96074 16.9221 10.0114 17.0275 10.0419C17.1329 10.0723 17.244 10.0819 17.3537 10.07C19.6775 10.07 21.3063 11.07 21.3063 11.94C21.3063 12.81 19.6775 13.82 17.3537 13.82C17.1492 13.82 16.9531 13.8948 16.8085 14.0279C16.664 14.1611 16.5827 14.3416 16.5827 14.53C16.5827 14.7183 16.664 14.8988 16.8085 15.032C16.9531 15.1651 17.1492 15.24 17.3537 15.24C20.4485 15.23 22.87 13.79 22.87 11.93L22.8591 11.94ZM7.15726 14.37C7.15727 14.2759 7.13698 14.1827 7.09755 14.0959C7.05813 14.0091 7.00037 13.9304 6.92762 13.8643C6.85488 13.7983 6.7686 13.7462 6.6738 13.7111C6.579 13.676 6.47758 13.6586 6.37543 13.66C4.05163 13.66 2.42281 12.66 2.42281 11.78C2.42281 10.9 4.05163 9.90995 6.37543 9.90995C6.48509 9.92192 6.59627 9.91235 6.70163 9.88188C6.807 9.85141 6.90415 9.80074 6.98671 9.73318C7.06927 9.66563 7.13534 9.58274 7.18059 9.48997C7.22585 9.3972 7.24924 9.29665 7.24924 9.19495C7.24924 9.09325 7.22585 8.9927 7.18059 8.89993C7.13534 8.80716 7.06927 8.72427 6.98671 8.65672C6.90415 8.58917 6.807 8.53849 6.70163 8.50802C6.59627 8.47755 6.48509 8.46799 6.37543 8.47995C3.29152 8.47995 0.869995 9.92995 0.869995 11.78C0.869995 13.63 3.29152 15.08 6.37543 15.08C6.47758 15.0813 6.579 15.0639 6.6738 15.0288C6.7686 14.9937 6.85488 14.9416 6.92762 14.8756C7.00037 14.8095 7.05813 14.7308 7.09755 14.644C7.13698 14.5572 7.15727 14.464 7.15726 14.37Z" fill="#5E6278"/>
</svg>
