<svg width="24" height="24" viewBox="0 0 24 24" fill="none" xmlns="http://www.w3.org/2000/svg">
<path d="M9.18 1.17004C8.19109 1.17004 7.22439 1.46329 6.40214 2.0127C5.5799 2.5621 4.93904 3.343 4.5606 4.25663C4.18216 5.17026 4.08314 6.17559 4.27607 7.1455C4.46899 8.1154 4.9452 9.00632 5.64446 9.70558C6.34372 10.4048 7.23464 10.881 8.20454 11.074C9.17445 11.2669 10.1798 11.1679 11.0934 10.7894C12.007 10.411 12.7879 9.77014 13.3373 8.9479C13.8868 8.12565 14.18 7.15895 14.18 6.17004C14.18 5.51343 14.0507 4.86325 13.7994 4.25663C13.5481 3.65 13.1798 3.0988 12.7155 2.63451C12.2512 2.17022 11.7 1.80192 11.0934 1.55065C10.4868 1.29937 9.83661 1.17004 9.18 1.17004ZM9.18 9.73004C8.46885 9.72609 7.7748 9.5116 7.18542 9.11364C6.59604 8.71567 6.13773 8.15205 5.86832 7.4939C5.59891 6.83575 5.53047 6.11255 5.67162 5.41554C5.81278 4.71853 6.15722 4.07894 6.66147 3.57747C7.16573 3.076 7.80721 2.73512 8.50499 2.59782C9.20277 2.46053 9.92559 2.53298 10.5822 2.80603C11.2389 3.07909 11.8 3.54051 12.1946 4.13209C12.5893 4.72366 12.8 5.41889 12.8 6.13004C12.7947 7.08666 12.411 8.00229 11.7327 8.67685C11.0544 9.35141 10.1366 9.73006 9.18 9.73004Z" fill="#5E6278"/>
<path d="M9.18002 11.9301C4.82002 11.9301 1.40002 14.3201 1.40002 17.3801C1.40002 20.4401 4.82002 22.8301 9.18002 22.8301C13.54 22.8301 17 20.4401 17 17.3801C17 14.3201 13.54 11.9301 9.18002 11.9301ZM9.18002 21.3301C5.77002 21.3301 2.90002 19.5201 2.90002 17.3801C2.90002 15.2401 5.77002 13.4301 9.18002 13.4301C12.59 13.4301 15.45 15.2401 15.45 17.3801C15.45 19.5201 12.58 21.3301 9.18002 21.3301Z" fill="#5E6278"/>
<path d="M16.63 11.38C17.7121 11.3561 18.7404 10.9034 19.4887 10.1213C20.2369 9.33932 20.6439 8.29207 20.62 7.20999C20.5962 6.1279 20.1434 5.09962 19.3614 4.35135C18.5794 3.60308 17.5321 3.19612 16.45 3.21999C16.2511 3.21999 16.0604 3.29901 15.9197 3.43966C15.779 3.58031 15.7 3.77108 15.7 3.96999C15.7 4.1689 15.779 4.35967 15.9197 4.50032C16.0604 4.64097 16.2511 4.71999 16.45 4.71999C16.7888 4.71211 17.1259 4.77104 17.4419 4.89342C17.758 5.0158 18.0468 5.19922 18.2919 5.43323C18.5371 5.66723 18.7337 5.94723 18.8707 6.25723C19.0076 6.56724 19.0822 6.90118 19.09 7.23999C19.0979 7.5788 19.039 7.91584 18.9166 8.23188C18.7942 8.54791 18.6108 8.83675 18.3768 9.0819C18.1428 9.32704 17.8628 9.5237 17.5528 9.66064C17.2428 9.79757 16.9088 9.87211 16.57 9.87999C16.4302 9.89028 16.2898 9.89028 16.15 9.87999C15.9532 9.85678 15.755 9.91036 15.5967 10.0296C15.4384 10.1488 15.3321 10.3244 15.3 10.52C15.2859 10.6179 15.2913 10.7176 15.3159 10.8134C15.3405 10.9091 15.3837 10.9991 15.4432 11.0781C15.5027 11.1571 15.5772 11.2236 15.6625 11.2737C15.7477 11.3238 15.8421 11.3565 15.94 11.37C16.1297 11.3856 16.3204 11.3856 16.51 11.37L16.63 11.38Z" fill="#5E6278"/>
<path d="M18 20.7301C20.7 20.3001 22.58 18.6301 22.58 16.6501C22.58 14.3101 20 12.4801 16.71 12.4801C16.5111 12.4801 16.3203 12.5591 16.1797 12.6998C16.039 12.8404 15.96 13.0312 15.96 13.2301C15.96 13.429 16.039 13.6198 16.1797 13.7604C16.3203 13.9011 16.5111 13.9801 16.71 13.9801C19.08 13.9801 21.08 15.2001 21.08 16.6501C21.08 17.8501 19.69 18.9401 17.76 19.2401C17.565 19.2744 17.3911 19.3835 17.2753 19.5441C17.1595 19.7048 17.111 19.9042 17.14 20.1001C17.1685 20.2759 17.2586 20.4358 17.3942 20.5512C17.5298 20.6666 17.702 20.73 17.88 20.7301H18Z" fill="#5E6278"/>
</svg>
