<svg width="23" height="22" viewBox="0 0 23 22" fill="none" xmlns="http://www.w3.org/2000/svg">
<path d="M10.4037 15.6389C10.1601 15.6405 9.91867 15.5828 9.69335 15.469C9.46803 15.3553 9.26332 15.1877 9.09107 14.9761C8.91881 14.7645 8.78244 14.513 8.68985 14.2362C8.59725 13.9593 8.55027 13.6627 8.55163 13.3634V8.64914C8.54921 8.24398 8.6349 7.84537 8.79984 7.4945C8.96477 7.14363 9.20297 6.85324 9.48983 6.65332C9.77668 6.4534 10.1018 6.35121 10.4315 6.3573C10.7613 6.3634 11.0838 6.47757 11.3656 6.688L14.5479 9.03886C14.8234 9.24223 15.0513 9.52973 15.2096 9.87338C15.3678 10.217 15.451 10.6052 15.451 11C15.451 11.3948 15.3678 11.783 15.2096 12.1266C15.0513 12.4703 14.8234 12.7578 14.5479 12.9611L11.3656 15.312C11.076 15.5288 10.7429 15.642 10.4037 15.6389ZM10.4037 8.24686C10.3612 8.24683 10.3191 8.25731 10.2799 8.27768C10.2408 8.29805 10.2053 8.32788 10.1757 8.36541C10.1461 8.40294 10.123 8.4474 10.1077 8.49614C10.0923 8.54489 10.0851 8.59692 10.0865 8.64914V13.3634C10.0844 13.4333 10.0987 13.5025 10.1278 13.5627C10.1568 13.6229 10.1993 13.6715 10.2502 13.7029C10.2981 13.7383 10.3529 13.7571 10.4088 13.7571C10.4647 13.7571 10.5196 13.7383 10.5674 13.7029L13.76 11.3394C13.8065 11.3031 13.8448 11.2529 13.8713 11.1936C13.8978 11.1343 13.9117 11.0677 13.9117 11C13.9117 10.9323 13.8978 10.8657 13.8713 10.8064C13.8448 10.7471 13.8065 10.6969 13.76 10.6606L10.5674 8.29714C10.5174 8.2631 10.4609 8.24576 10.4037 8.24686ZM17.1879 22H6.81209C5.27146 21.9967 3.7947 21.2433 2.70531 19.9049C1.61592 18.5665 1.00271 16.7522 1 14.8594V7.14057C1.00271 5.2478 1.61592 3.43349 2.70531 2.0951C3.7947 0.756699 5.27146 0.00332358 6.81209 0H17.1879C18.7285 0.00332358 20.2053 0.756699 21.2947 2.0951C22.3841 3.43349 22.9973 5.2478 23 7.14057V14.8594C22.9973 16.7522 22.3841 18.5665 21.2947 19.9049C20.2053 21.2433 18.7285 21.9967 17.1879 22ZM6.81209 1.88571C5.67854 1.88903 4.59218 2.44374 3.79063 3.42849C2.98909 4.41325 2.53759 5.74792 2.53488 7.14057V14.8594C2.53488 16.2531 2.98552 17.5897 3.78765 18.5752C4.58978 19.5607 5.67771 20.1143 6.81209 20.1143H17.1879C18.3223 20.1143 19.4102 19.5607 20.2124 18.5752C21.0145 17.5897 21.4651 16.2531 21.4651 14.8594V7.14057C21.4624 5.74792 21.0109 4.41325 20.2094 3.42849C19.4078 2.44374 18.3215 1.88903 17.1879 1.88571H6.81209Z" fill="#5E6278"/>
</svg>
